<?xml version="1.0" encoding="utf-8"?>
<!-- Generator: Adobe Illustrator 24.0.1, SVG Export Plug-In . SVG Version: 6.00 Build 0)  -->
<svg version="1.1" id="Capa_1" xmlns="http://www.w3.org/2000/svg" xmlns:xlink="http://www.w3.org/1999/xlink" x="0px" y="0px"
	 viewBox="0 0 541 269" style="enable-background:new 0 0 541 269;" xml:space="preserve">
<style type="text/css">
	.st0{fill:#D4841C;}
</style>
<g>
	<g>
		<path class="st0" d="M61.63,201.23c0-26.04,17.52-41.04,38.4-41.04c11.4,0,19.56,4.56,24.96,10.2l-9.84,11.28
			c-3.84-3.48-7.92-5.4-14.52-5.4c-11.52,0-19.92,9.12-19.92,24.24c0,15.6,7.08,24.6,21.6,24.6c2.76,0,5.76-0.72,7.44-2.04v-12.6
			H97.27v-15.24h29.04v36.48c-5.4,5.28-15,9.48-26.04,9.48C78.67,241.19,61.63,227.63,61.63,201.23z"/>
		<path class="st0" d="M139.39,162.12c0-5.76,4.32-9.48,10.44-9.48c6.12,0,10.44,3.72,10.44,9.48c0,5.88-4.32,9.6-10.44,9.6
			C143.71,171.71,139.39,168,139.39,162.12z M140.59,180.11h18.48v59.64h-18.48V180.11z"/>
		<path class="st0" d="M174.19,180.11h15.12l1.32,7.44h0.48c4.92-4.8,10.92-8.88,19.08-8.88c12.96,0,18.48,9.24,18.48,24.12v36.96
			h-18.6v-34.56c0-8.28-2.16-10.8-6.96-10.8c-4.2,0-6.72,2.04-10.44,5.4v39.96h-18.48V180.11z"/>
		<path class="st0" d="M238.03,232.19l7.8-10.44c5.52,4.32,10.92,5.76,15.6,5.76c5.04,0,7.08-1.8,7.08-4.68
			c0-3.6-5.04-5.16-11.4-7.56c-8.52-3.12-15.72-8.52-15.72-17.76c0-11.28,9.12-18.84,23.04-18.84c8.76,0,16.2,3.24,21.36,7.56
			l-7.92,10.44c-4.32-3.12-8.76-4.32-12.84-4.32c-4.32,0-6.36,1.68-6.36,4.32c0,3.12,3.36,4.56,10.92,6.96
			c9.12,2.88,16.32,8.28,16.32,18.12c0,10.92-8.64,19.44-24.84,19.44C253.15,241.19,244.03,238.07,238.03,232.19z"/>
		<path class="st0" d="M293.35,209.87c0-19.32,13.92-31.2,28.2-31.2c17.28,0,25.68,12.48,25.68,28.68c0,3.36-0.36,6.48-0.72,8.16
			h-35.16c1.68,8.04,7.32,11.52,14.88,11.52c4.32,0,8.64-1.32,12.84-3.72l6,11.16c-6.24,4.44-14.4,6.72-21.48,6.72
			C306.55,241.19,293.35,229.79,293.35,209.87z M331.39,203.03c0-5.88-2.64-10.32-9.36-10.32c-5.28,0-9.72,3.36-10.92,10.32H331.39z
			"/>
		<path class="st0" d="M359.11,180.11h15.12l1.32,7.44h0.48c4.92-4.8,10.92-8.88,19.08-8.88c12.96,0,18.48,9.24,18.48,24.12v36.96
			h-18.6v-34.56c0-8.28-2.16-10.8-6.96-10.8c-4.2,0-6.72,2.04-10.44,5.4v39.96h-18.48V180.11z"/>
		<path class="st0" d="M424.51,249.83c0-4.92,2.88-8.88,8.4-11.76v-0.48c-3.12-2.16-5.4-5.28-5.4-10.2c0-4.2,2.76-8.52,6.6-11.28
			v-0.48c-4.2-2.88-8.04-8.4-8.04-15.36c0-14.52,12-21.6,24.96-21.6c3.36,0,6.6,0.48,9.36,1.44h21.96v13.44h-9.36
			c0.96,1.68,1.8,4.44,1.8,7.32c0,13.92-10.56,20.04-23.76,20.04c-2.04,0-4.44-0.36-7.08-1.08c-1.32,1.2-1.92,2.16-1.92,4.08
			c0,2.88,2.4,4.2,8.76,4.2h9.48c14.76,0,23.04,4.44,23.04,15.24c0,12.6-13.08,21.48-33.84,21.48
			C435.67,264.83,424.51,260.51,424.51,249.83z M465.55,246.59c0-3.6-3.12-4.32-8.76-4.32h-5.76c-4.32,0-6.6-0.24-8.4-0.72
			c-1.92,1.68-2.88,3.36-2.88,5.28c0,4.32,5.04,6.48,12.72,6.48C460.03,253.31,465.55,250.43,465.55,246.59z M458.59,200.27
			c0-6.12-3.12-9.24-7.56-9.24c-4.44,0-7.56,3.12-7.56,9.24c0,6.24,3.24,9.48,7.56,9.48C455.47,209.75,458.59,206.51,458.59,200.27z
			"/>
	</g>
</g>
<g id="_25_Ginseng">
	<path class="st0" d="M324.18,44.24v-4.56h4.56c2.52,0,4.56-2.04,4.56-4.56V16.86c0-2.52-2.04-4.56-4.56-4.56H219.22
		c-2.52,0-4.56,2.04-4.56,4.56v18.25c0,2.52,2.04,4.56,4.56,4.56h4.56v4.56c-12.6,0.01-22.8,10.22-22.82,22.82v68.45
		c0.01,12.6,10.22,22.8,22.82,22.82h100.4c12.6-0.01,22.8-10.22,22.82-22.82V67.05C346.99,54.46,336.78,44.25,324.18,44.24z
		 M223.78,21.42h100.4v9.13h-100.4V21.42z M337.87,135.51c-0.01,7.56-6.13,13.68-13.69,13.69h-100.4
		c-7.56-0.01-13.68-6.13-13.69-13.69V67.05c0.01-7.56,6.13-13.68,13.69-13.69h4.56c2.52,0,4.56-2.04,4.56-4.56v-9.13h82.14v9.13
		c0,2.52,2.04,4.56,4.56,4.56h4.56c7.56,0.01,13.68,6.13,13.69,13.69V135.51z"/>
	<path class="st0" d="M324.18,62.49h-12.07c-0.57-2.03-1.2-4.04-1.86-6.01c-0.62-1.86-2.37-3.12-4.33-3.12
		c-20.11,0-30.74,6.9-38.96,14.41c-0.28,0.18-0.54,0.38-0.78,0.62c-0.14,0.15-0.27,0.31-0.39,0.48c-1.44,1.37-2.82,2.74-4.17,4.08
		c-1.18,1.18-2.33,2.33-3.46,3.47c-4.42,0.49-13.69,0.66-18.11-3.08c-1.8-1.58-2.76-3.91-2.59-6.29c0-2.52-2.04-4.56-4.56-4.56
		c-2.52,0-4.56,2.04-4.56,4.56c-0.17,5.07,1.97,9.95,5.81,13.26c4.4,3.31,9.7,5.18,15.2,5.37c-9.83,11.04-15.95,21.69-16.39,38.76
		l-7.85,7.85c-1.81,1.75-1.86,4.64-0.11,6.45s4.64,1.86,6.45,0.11c0.04-0.04,0.08-0.07,0.11-0.11l7.85-7.85
		c12.06-0.65,19.74-7.29,27.84-14.3c1.5-1.3,3.01-2.61,4.56-3.9c2.55,3.2,2.07,7.86-1.08,10.47c-1.81,1.75-1.86,4.64-0.11,6.45
		c1.75,1.81,4.64,1.86,6.45,0.11c0.04-0.04,0.08-0.07,0.11-0.11c6.34-5.85,7.17-15.57,1.92-22.41c2.51-1.69,5.15-3.19,7.89-4.47
		c-0.63,8.21,3.06,13.18,6.13,17.27c3.22,4.29,5.54,7.39,3.79,14.41c-0.65,2.43,0.79,4.94,3.23,5.59s4.94-0.79,5.59-3.23
		c0.01-0.05,0.03-0.1,0.04-0.15c2.81-11.24-1.71-17.26-5.34-22.1c-3.22-4.29-5.54-7.39-3.79-14.41c0.08-0.31,0.13-0.62,0.15-0.94
		c0.37-0.1,0.73-0.21,1.11-0.3c5.89-1.15,11-4.78,14.02-9.96c2.58-5.37,3.34-11.44,2.18-17.28h10.07c2.52,0,4.56-2.04,4.56-4.56
		C328.75,64.53,326.7,62.49,324.18,62.49z M303.92,84.51c-1.82,2.93-4.82,4.94-8.23,5.5c-16.43,4.11-25.97,12.37-34.4,19.67
		c-6.49,5.62-11.85,10.27-19.08,11.68c1.34-17.43,9.97-26.07,25.86-41.96c0.46-0.46,0.89-0.89,1.34-1.33l3.62,3.62
		c1.81,1.75,4.7,1.7,6.45-0.11c1.71-1.77,1.71-4.57,0-6.34l-3.35-3.35c1.84-1.51,3.81-2.85,5.88-4.03l4.71,4.7
		c1.81,1.75,4.7,1.7,6.45-0.11c1.71-1.77,1.71-4.57,0-6.34l-1.94-1.94c3.73-0.94,7.54-1.48,11.38-1.61
		C305.03,70.38,306.86,79.17,303.92,84.51z"/>
</g>
</svg>
