<?xml version="1.0" encoding="utf-8"?>
<!-- Generator: Adobe Illustrator 24.0.1, SVG Export Plug-In . SVG Version: 6.00 Build 0)  -->
<svg version="1.1" id="Capa_1" xmlns="http://www.w3.org/2000/svg" xmlns:xlink="http://www.w3.org/1999/xlink" x="0px" y="0px"
	 viewBox="0 0 541 269" style="enable-background:new 0 0 541 269;" xml:space="preserve">
<style type="text/css">
	.st0{fill:#D4841C;}
</style>
<g>
	<path class="st0" d="M287.03,86.85c-4.32,2.45-8.06,4.57-11.95,6.78c0.46,0.76,0.77,1.3,1.11,1.83
		c6.68,10.39,5.08,23.76-3.88,32.28c-3.08,2.93-7.3,3.04-10.08,0.26c-2.84-2.85-2.66-7.13,0.44-10.2c4.53-4.49,5.05-10.84,1.2-15.48
		c-4.85,4.1-9.66,8.25-14.56,12.29c-7.12,5.87-14.71,10.99-23.76,13.41c-2.91,0.78-5.97,1.02-8.91,1.69
		c-1.18,0.27-2.47,0.8-3.33,1.61c-3.47,3.27-6.77,6.71-10.16,10.07c-3.16,3.13-7.35,3.35-10.22,0.55
		c-2.93-2.85-2.76-7.15,0.44-10.37c3.41-3.44,6.87-6.82,10.24-10.29c0.6-0.61,1.2-1.55,1.22-2.35c0.56-21.83,9.1-40.28,23.63-56.23
		c0.34-0.37,0.62-0.79,1.06-1.36c-2.59-0.43-5.08-0.65-7.46-1.26c-8.14-2.1-15.59-5.37-20.3-12.89c-2.76-4.4-4.1-9.2-3.91-14.4
		c0.14-3.92,3.11-6.88,6.91-6.9c3.88-0.01,6.97,3.03,6.94,7.06c-0.05,5.76,2.69,9.65,7.86,11.78c7.41,3.06,15.21,3.06,23.03,2.34
		c0.66-0.06,1.33-0.77,1.87-1.3c6.78-6.69,13.33-13.63,21.12-19.23c10.92-7.86,23.15-12.25,36.46-13.66
		c4.37-0.47,8.78-0.67,13.18-0.83c3.74-0.13,6.13,1.65,7.31,5.2c0.78,2.33,1.57,4.65,2.16,7.03c0.33,1.35,0.98,1.65,2.26,1.64
		c5.35-0.06,10.69-0.04,16.04-0.02c4.4,0.02,7.51,2.94,7.49,6.97c-0.02,4.03-3.13,6.89-7.56,6.9c-4.76,0.02-9.52,0-14.52,0
		c0.2,2.23,0.48,4.34,0.56,6.45c0.27,7.35-0.9,14.47-4.75,20.81c-4.48,7.37-11.19,11.95-19.61,13.87c-1.95,0.44-2.77,1.29-3.2,3.27
		c-1.43,6.48-0.23,12.25,3.72,17.6c2.82,3.83,5.62,7.72,7.98,11.83c4.65,8.12,4.72,16.81,2.25,25.6c-0.99,3.53-4.74,5.43-8.27,4.53
		c-3.54-0.9-5.7-4.48-5.06-8.21c0.42-2.48,0.93-4.98,0.98-7.49c0.08-4.12-1.62-7.69-3.97-11.01c-2.66-3.77-5.43-7.49-7.82-11.43
		C287.87,100.07,286.57,93.96,287.03,86.85z M219.04,115.32c6.06-1.16,11.22-3.64,15.73-7.15c7.63-5.95,14.98-12.25,22.46-18.38
		c13.14-10.77,27.75-18.61,44.44-22.39c7.6-1.72,12.71-7.97,13.24-15.74c0.58-8.52-1.47-16.63-3.91-24.66
		c-0.13-0.44-1.03-0.94-1.55-0.91c-2.74,0.17-5.48,0.4-8.19,0.79c-2.49,0.36-4.95,0.95-7.42,1.45c-0.06,0.23-0.12,0.46-0.18,0.69
		c0.72,0.6,1.5,1.14,2.16,1.8c3.26,3.27,3.42,7.46,0.44,10.36c-2.93,2.84-7,2.64-10.21-0.56c-2.19-2.18-4.32-4.42-6.5-6.66
		c-1.73,1.09-3.22,1.97-4.64,2.94c-1.46,1-2.85,2.11-4.42,3.27c1.74,1.74,3.3,3.24,4.8,4.79c2.98,3.06,3.05,7.25,0.2,10.06
		c-2.85,2.81-6.98,2.69-10.06-0.33c-1.69-1.66-3.32-3.37-5.02-5.11c-0.48,0.42-0.76,0.63-1,0.88c-5.81,5.94-11.72,11.78-17.4,17.85
		c-7.93,8.47-15.09,17.51-19.16,28.59C220.71,102.74,219.44,108.77,219.04,115.32z"/>
	<g>
		<g>
			<path class="st0" d="M61.63,199.23c0-26.04,17.52-41.04,38.4-41.04c11.4,0,19.56,4.56,24.96,10.2l-9.84,11.28
				c-3.84-3.48-7.92-5.4-14.52-5.4c-11.52,0-19.92,9.12-19.92,24.24c0,15.6,7.08,24.6,21.6,24.6c2.76,0,5.76-0.72,7.44-2.04v-12.6
				H97.27v-15.24h29.04v36.48c-5.4,5.28-15,9.48-26.04,9.48C78.67,239.19,61.63,225.63,61.63,199.23z"/>
			<path class="st0" d="M139.39,160.12c0-5.76,4.32-9.48,10.44-9.48c6.12,0,10.44,3.72,10.44,9.48c0,5.88-4.32,9.6-10.44,9.6
				C143.71,169.71,139.39,166,139.39,160.12z M140.59,178.11h18.48v59.64h-18.48V178.11z"/>
			<path class="st0" d="M174.19,178.11h15.12l1.32,7.44h0.48c4.92-4.8,10.92-8.88,19.08-8.88c12.96,0,18.48,9.24,18.48,24.12v36.96
				h-18.6v-34.56c0-8.28-2.16-10.8-6.96-10.8c-4.2,0-6.72,2.04-10.44,5.4v39.96h-18.48V178.11z"/>
			<path class="st0" d="M238.03,230.19l7.8-10.44c5.52,4.32,10.92,5.76,15.6,5.76c5.04,0,7.08-1.8,7.08-4.68
				c0-3.6-5.04-5.16-11.4-7.56c-8.52-3.12-15.72-8.52-15.72-17.76c0-11.28,9.12-18.84,23.04-18.84c8.76,0,16.2,3.24,21.36,7.56
				l-7.92,10.44c-4.32-3.12-8.76-4.32-12.84-4.32c-4.32,0-6.36,1.68-6.36,4.32c0,3.12,3.36,4.56,10.92,6.96
				c9.12,2.88,16.32,8.28,16.32,18.12c0,10.92-8.64,19.44-24.84,19.44C253.15,239.19,244.03,236.07,238.03,230.19z"/>
			<path class="st0" d="M293.35,207.87c0-19.32,13.92-31.2,28.2-31.2c17.28,0,25.68,12.48,25.68,28.68c0,3.36-0.36,6.48-0.72,8.16
				h-35.16c1.68,8.04,7.32,11.52,14.88,11.52c4.32,0,8.64-1.32,12.84-3.72l6,11.16c-6.24,4.44-14.4,6.72-21.48,6.72
				C306.55,239.19,293.35,227.79,293.35,207.87z M331.39,201.03c0-5.88-2.64-10.32-9.36-10.32c-5.28,0-9.72,3.36-10.92,10.32H331.39
				z"/>
			<path class="st0" d="M359.11,178.11h15.12l1.32,7.44h0.48c4.92-4.8,10.92-8.88,19.08-8.88c12.96,0,18.48,9.24,18.48,24.12v36.96
				h-18.6v-34.56c0-8.28-2.16-10.8-6.96-10.8c-4.2,0-6.72,2.04-10.44,5.4v39.96h-18.48V178.11z"/>
			<path class="st0" d="M424.51,247.83c0-4.92,2.88-8.88,8.4-11.76v-0.48c-3.12-2.16-5.4-5.28-5.4-10.2c0-4.2,2.76-8.52,6.6-11.28
				v-0.48c-4.2-2.88-8.04-8.4-8.04-15.36c0-14.52,12-21.6,24.96-21.6c3.36,0,6.6,0.48,9.36,1.44h21.96v13.44h-9.36
				c0.96,1.68,1.8,4.44,1.8,7.32c0,13.92-10.56,20.04-23.76,20.04c-2.04,0-4.44-0.36-7.08-1.08c-1.32,1.2-1.92,2.16-1.92,4.08
				c0,2.88,2.4,4.2,8.76,4.2h9.48c14.76,0,23.04,4.44,23.04,15.24c0,12.6-13.08,21.48-33.84,21.48
				C435.67,262.83,424.51,258.51,424.51,247.83z M465.55,244.59c0-3.6-3.12-4.32-8.76-4.32h-5.76c-4.32,0-6.6-0.24-8.4-0.72
				c-1.92,1.68-2.88,3.36-2.88,5.28c0,4.32,5.04,6.48,12.72,6.48C460.03,251.31,465.55,248.43,465.55,244.59z M458.59,198.27
				c0-6.12-3.12-9.24-7.56-9.24c-4.44,0-7.56,3.12-7.56,9.24c0,6.24,3.24,9.48,7.56,9.48C455.47,207.75,458.59,204.51,458.59,198.27
				z"/>
		</g>
	</g>
</g>
</svg>
